<svg width="16" height="16" viewBox="0 0 16 16" xmlns="http://www.w3.org/2000/svg" shape-rendering="crispEdges">
  <rect x="6" y="5" width="1" height="1" fill="#000000" />
  <rect x="5" y="6" width="1" height="1" fill="#000000" />
  <rect x="6" y="6" width="1" height="1" fill="#000000" />
  <rect x="7" y="6" width="1" height="1" fill="#000000" />
  <rect x="1" y="7" width="1" height="1" fill="#00FFFF" />
  <rect x="5" y="7" width="1" height="1" fill="#808080" />
  <rect x="6" y="7" width="1" height="1" fill="#8B4513" />
  <rect x="7" y="7" width="1" height="1" fill="#8B4513" />
  <rect x="8" y="7" width="1" height="1" fill="#000000" />
  <rect x="0" y="8" width="1" height="1" fill="#00FFFF" />
  <rect x="1" y="8" width="1" height="1" fill="#00FFFF" />
  <rect x="2" y="8" width="1" height="1" fill="#00FFFF" />
  <rect x="3" y="8" width="1" height="1" fill="#000000" />
  <rect x="4" y="8" width="1" height="1" fill="#000000" />
  <rect x="5" y="8" width="1" height="1" fill="#808080" />
  <rect x="6" y="8" width="1" height="1" fill="#808080" />
  <rect x="7" y="8" width="1" height="1" fill="#808080" />
  <rect x="8" y="8" width="1" height="1" fill="#808080" />
  <rect x="9" y="8" width="1" height="1" fill="#000000" />
  <rect x="10" y="8" width="1" height="1" fill="#000000" />
  <rect x="11" y="8" width="1" height="1" fill="#000000" />
  <rect x="12" y="8" width="1" height="1" fill="#000000" />
  <rect x="0" y="9" width="1" height="1" fill="#00FFFF" />
  <rect x="3" y="9" width="1" height="1" fill="#000000" />
  <rect x="4" y="9" width="1" height="1" fill="#808080" />
  <rect x="5" y="9" width="1" height="1" fill="#8B4513" />
  <rect x="6" y="9" width="1" height="1" fill="#000000" />
  <rect x="7" y="9" width="1" height="1" fill="#000000" />
  <rect x="8" y="9" width="1" height="1" fill="#8B4513" />
  <rect x="9" y="9" width="1" height="1" fill="#000000" />
  <rect x="10" y="9" width="1" height="1" fill="#000000" />
  <rect x="11" y="9" width="1" height="1" fill="#000000" />
  <rect x="5" y="10" width="1" height="1" fill="#000000" />
  <rect x="6" y="10" width="1" height="1" fill="#000000" />
  <rect x="7" y="10" width="1" height="1" fill="#000000" />
  <rect x="6" y="11" width="1" height="1" fill="#000000" />
</svg>