<svg width="16" height="16" viewBox="0 0 16 16" xmlns="http://www.w3.org/2000/svg" shape-rendering="crispEdges">
  <rect x="3" y="3" width="1" height="1" fill="#808080" />
  <rect x="4" y="3" width="1" height="1" fill="#808080" />
  <rect x="5" y="3" width="1" height="1" fill="#808080" />
  <rect x="6" y="3" width="1" height="1" fill="#808080" />
  <rect x="7" y="3" width="1" height="1" fill="#808080" />
  <rect x="8" y="3" width="1" height="1" fill="#808080" />
  <rect x="9" y="3" width="1" height="1" fill="#808080" />
  <rect x="3" y="4" width="1" height="1" fill="#808080" />
  <rect x="4" y="4" width="1" height="1" fill="#000000" />
  <rect x="5" y="4" width="1" height="1" fill="#000000" />
  <rect x="6" y="4" width="1" height="1" fill="#808080" />
  <rect x="7" y="4" width="1" height="1" fill="#808080" />
  <rect x="8" y="4" width="1" height="1" fill="#8B4513" />
  <rect x="9" y="4" width="1" height="1" fill="#808080" />
  <rect x="4" y="5" width="1" height="1" fill="#000000" />
  <rect x="5" y="5" width="1" height="1" fill="#000000" />
  <rect x="4" y="6" width="1" height="1" fill="#000000" />
</svg>