<svg width="16" height="16" viewBox="0 0 16 16" xmlns="http://www.w3.org/2000/svg" style="image-rendering: pixelated">
  <!-- Black outline -->
  <path d="M6 1h4v1H6V1zm-1 1h1v2H5V2zm5 0h1v2h-1V2zm-3 0h2v2H7V2zm-3 2h1v2H4V4zm7 0h1v2h-1V4zm-8 2h1v2H3V6zm9 0h1v2h-1V6zm-10 2h1v2H2V8zm11 0h1v2h-1V8zm-11 2h1v4H2v-4zm11 0h1v4h-1v-4zm-10 4h10v1H3v-1z" fill="#000"/>
  <!-- Cork -->
  <path d="M7 2h2v2H7V2z" fill="#8B4513"/>
  <!-- Red Liquid -->
  <path d="M6 4h4v2H6V4zm-1 2h6v2H5V6zm-1 2h8v2H4V8zm-1 2h10v4H3v-4z" fill="#AA0000"/>
  <!-- Highlight -->
  <path d="M4 10h2v2H4v-2zm1-3h1v1H5V7z" fill="#FF5555"/>
  <!-- Glass Reflection Rim -->
  <path d="M6 3h4v1H6V3z" fill="#FFFFFF" fill-opacity="0.5"/>
</svg>
