<svg xmlns="http://www.w3.org/2000/svg" viewBox="0 0 80 80" width="80" height="80">
  <ellipse cx="40" cy="70" rx="22" ry="8" fill="rgba(0,0,0,0.4)" />
  
  <g transform="translate(0, 10) rotate(-15 40 40)">
    <!-- Club dropping -->
    <path d="M 60 40 L 75 10 A 8 8 0 0 1 85 15 L 70 45 Z" fill="#795548" stroke="#3E2723" stroke-width="2" transform="rotate(20 65 35)"/>

    <path d="M 48 36 C 58 38, 60 50, 52 56" fill="#5D4037" stroke="#3E2723" stroke-width="2" />
    <path d="M 46 32 C 54 28, 62 34, 58 42" fill="#424242" stroke="#212121" stroke-width="2"/>

    <path d="M 32 58 L 24 66 L 30 70 L 38 60 Z" fill="#5D4037" stroke="#3E2723" stroke-width="2" />
    <path d="M 48 58 L 56 64 L 50 68 L 42 60 Z" fill="#5D4037" stroke="#3E2723" stroke-width="2" />

    <path d="M 28 36 Q 40 44 52 36 L 48 60 Q 40 64 32 60 Z" fill="#6D4C41" stroke="#3E2723" stroke-width="2"/>
    
    <path d="M 32 36 C 22 38, 20 50, 28 56" fill="#5D4037" stroke="#3E2723" stroke-width="2" />
    <path d="M 34 32 C 26 28, 18 34, 22 42" fill="#424242" stroke="#212121" stroke-width="2"/>

    <g transform="translate(-2, -6) rotate(-10 40 26)">
      <ellipse cx="40" cy="26" rx="16" ry="14" fill="#5D4037" stroke="#3E2723" stroke-width="2" />
      <path d="M 24 26 L 16 22 L 20 30 Z" fill="#5D4037" stroke="#3E2723" stroke-width="2"/>
      <path d="M 56 26 L 64 22 L 60 30 Z" fill="#5D4037" stroke="#3E2723" stroke-width="2"/>
    </g>
  </g>
</svg>