<svg xmlns="http://www.w3.org/2000/svg" viewBox="0 0 80 80" width="80" height="80">
  <defs>
    <filter id="shadow">
      <feDropShadow dx="0" dy="5" stdDeviation="3" flood-opacity="0.4" />
    </filter>
  </defs>
  <ellipse cx="40" cy="70" rx="22" ry="8" fill="rgba(0,0,0,0.5)" />
  
  <g filter="url(#shadow)">
    <!-- Right Arm -->
    <path d="M 50 36 C 60 34, 66 42, 58 50" fill="#5D4037" stroke="#3E2723" stroke-width="2" stroke-linecap="round" />
    <!-- Right Shoulder Pad -->
    <path d="M 48 32 C 58 28, 66 36, 60 44" fill="#424242" stroke="#212121" stroke-width="2"/>
    <!-- Weapon -->
    <path d="M 54 46 L 70 30 A 8 8 0 0 1 78 36 L 62 52 Z" fill="#795548" stroke="#3E2723" stroke-width="2" stroke-linejoin="round"/>

    <!-- Left Leg (Forward) -->
    <path d="M 34 58 L 26 66 L 32 70 L 40 60 Z" fill="#5D4037" stroke="#3E2723" stroke-width="2" stroke-linejoin="round" />
    <!-- Right Leg (Back) -->
    <path d="M 46 58 L 54 64 L 48 68 L 42 60 Z" fill="#5D4037" stroke="#3E2723" stroke-width="2" stroke-linejoin="round" />

    <!-- Body -->
    <path d="M 30 36 Q 40 44 50 36 L 46 60 Q 40 64 34 60 Z" fill="#6D4C41" stroke="#3E2723" stroke-width="2" stroke-linejoin="round"/>
    
    <!-- Left Arm -->
    <path d="M 30 36 C 20 40, 22 52, 30 54" fill="#5D4037" stroke="#3E2723" stroke-width="2" stroke-linecap="round" />
    <!-- Left Shoulder Pad -->
    <path d="M 32 32 C 24 28, 16 34, 20 42" fill="#424242" stroke="#212121" stroke-width="2"/>

    <!-- Head -->
    <g transform="translate(0, 4)">
      <ellipse cx="40" cy="26" rx="16" ry="14" fill="#5D4037" stroke="#3E2723" stroke-width="2" />
      <path d="M 24 26 L 16 22 L 20 30 Z" fill="#5D4037" stroke="#3E2723" stroke-width="2" stroke-linejoin="round"/>
      <path d="M 56 26 L 64 22 L 60 30 Z" fill="#5D4037" stroke="#3E2723" stroke-width="2" stroke-linejoin="round"/>
      <path d="M 34 36 L 32 30 L 36 34 Z" fill="#F5F5F5" stroke="#9E9E9E" stroke-width="1"/>
      <path d="M 46 36 L 48 30 L 44 34 Z" fill="#F5F5F5" stroke="#9E9E9E" stroke-width="1"/>
      <circle cx="34" cy="22" r="2.5" fill="#E53935" />
      <circle cx="46" cy="22" r="2.5" fill="#E53935" />
      <path d="M 28 18 L 38 20" stroke="#3E2723" stroke-width="3" stroke-linecap="round"/>
      <path d="M 52 18 L 42 20" stroke="#3E2723" stroke-width="3" stroke-linecap="round"/>
    </g>
  </g>
</svg>