<svg width="16" height="16" viewBox="0 0 16 16" xmlns="http://www.w3.org/2000/svg" shape-rendering="crispEdges">
  <rect x="5" y="11" width="1" height="1" fill="#228B22" />
  <rect x="7" y="11" width="1" height="1" fill="#228B22" />
  <rect x="8" y="11" width="1" height="1" fill="#228B22" />
  <rect x="4" y="12" width="1" height="1" fill="#228B22" />
  <rect x="5" y="12" width="1" height="1" fill="#228B22" />
  <rect x="6" y="12" width="1" height="1" fill="#DC143C" />
  <rect x="7" y="12" width="1" height="1" fill="#228B22" />
  <rect x="8" y="12" width="1" height="1" fill="#228B22" />
  <rect x="9" y="12" width="1" height="1" fill="#DC143C" />
  <rect x="3" y="13" width="1" height="1" fill="#DC143C" />
  <rect x="4" y="13" width="1" height="1" fill="#DC143C" />
  <rect x="5" y="13" width="1" height="1" fill="#DC143C" />
  <rect x="6" y="13" width="1" height="1" fill="#DC143C" />
  <rect x="7" y="13" width="1" height="1" fill="#DC143C" />
  <rect x="8" y="13" width="1" height="1" fill="#DC143C" />
  <rect x="9" y="13" width="1" height="1" fill="#DC143C" />
  <rect x="10" y="13" width="1" height="1" fill="#DC143C" />
  <rect x="2" y="14" width="1" height="1" fill="#DC143C" />
  <rect x="3" y="14" width="1" height="1" fill="#8B0000" />
  <rect x="4" y="14" width="1" height="1" fill="#8B0000" />
  <rect x="5" y="14" width="1" height="1" fill="#8B0000" />
  <rect x="6" y="14" width="1" height="1" fill="#000000" />
  <rect x="7" y="14" width="1" height="1" fill="#000000" />
  <rect x="8" y="14" width="1" height="1" fill="#8B0000" />
  <rect x="9" y="14" width="1" height="1" fill="#8B0000" />
  <rect x="10" y="14" width="1" height="1" fill="#8B0000" />
  <rect x="11" y="14" width="1" height="1" fill="#DC143C" />
</svg>