<svg xmlns="http://www.w3.org/2000/svg" viewBox="0 0 80 80" width="80" height="80">
  <!-- Rubble Pile -->
  <path d="M 20 75 Q 40 65 60 75 Q 70 80 40 85 Q 10 80 20 75 Z" fill="#424242" stroke="#212121" stroke-width="2"/>
  <path d="M 30 70 Q 40 60 50 70 Q 55 75 40 80 Q 25 75 30 70 Z" fill="#616161" stroke="#424242" stroke-width="2"/>
  <path d="M 35 65 Q 40 55 45 65 Q 50 70 40 75 Q 30 70 35 65 Z" fill="#757575" stroke="#424242" stroke-width="2"/>
  
  <path d="M 65 65 L 75 68 L 72 75 L 62 72 Z" fill="#9E9E9E" stroke="#424242" stroke-width="2" />
  <path d="M 15 68 L 5 72 L 8 80 L 18 76 Z" fill="#9E9E9E" stroke="#424242" stroke-width="2" />
  
  <!-- Dead Head Rock -->
  <path d="M 35 75 L 45 70 L 50 78 L 40 82 Z" fill="#BDBDBD" stroke="#424242" stroke-width="2" />
</svg>