<svg xmlns="http://www.w3.org/2000/svg" viewBox="0 0 64 64" width="64" height="64">
  <ellipse cx="32" cy="56" rx="26" ry="10" fill="rgba(0,0,0,0.6)" />
  
  <g transform="translate(0, 40) rotate(-90 32 32) scale(1.2, 0.2)">
    <path d="M 50 30 L 48 36 L 52 46 L 46 68" fill="none" stroke="#2E1B1B" stroke-width="3" stroke-linecap="round" transform="rotate(70 50 40)"/>
    
    <path d="M 18 52 Q 28 62 34 52 Q 42 58 46 50 Z" fill="#4A0000" stroke="#210000" stroke-width="2" />
    <path d="M 16 48 Q 28 60 34 50 Q 42 56 48 46 Z" fill="#600D0D" stroke="#210000" stroke-width="2" />

    <path d="M 28 28 Q 34 36 40 28 L 48 46 Q 34 50 16 48 Z" fill="#600D0D" stroke="#210000" stroke-width="2" />

    <g transform="translate(-12, -14) rotate(-45 32 22)">
      <path d="M 32 12 C 20 12, 18 26, 24 30 C 32 34, 40 30, 40 30 C 46 26, 44 12, 32 12 Z" fill="#300000" stroke="#111" stroke-width="2" />
    </g>
  </g>
</svg>