<svg xmlns="http://www.w3.org/2000/svg" viewBox="0 0 64 64" width="64" height="64">
  <defs>
    <filter id="shadow">
      <feDropShadow dx="0" dy="4" stdDeviation="2" flood-opacity="0.3" />
    </filter>
    <filter id="glow">
      <feGaussianBlur stdDeviation="1.5" result="coloredBlur"/>
      <feMerge>
        <feMergeNode in="coloredBlur"/>
        <feMergeNode in="SourceGraphic"/>
      </feMerge>
    </filter>
  </defs>
  <ellipse cx="32" cy="56" rx="14" ry="6" fill="rgba(0,0,0,0.4)" />
  
  <g filter="url(#shadow)" transform="translate(0, 1)">
    <path d="M 44 24 L 42 30 L 46 40 L 40 62" fill="none" stroke="#4E342E" stroke-width="3" stroke-linecap="round"/>
    <circle cx="44" cy="22" r="4" fill="#E040FB" filter="url(#glow)" />
    
    <path d="M 38 34 C 44 36, 48 42, 44 46" fill="#B71C1C" stroke="#7F0000" stroke-width="2" />

    <path d="M 22 52 Q 28 60 32 54 Q 38 60 42 52 Z" fill="#7F0000" stroke="#4A0000" stroke-width="2" />
    <path d="M 20 48 Q 28 58 32 52 Q 38 58 44 48 Z" fill="#B71C1C" stroke="#7F0000" stroke-width="2" />

    <path d="M 26 28 Q 32 36 38 28 L 44 48 Q 32 52 20 48 Z" fill="#B71C1C" stroke="#7F0000" stroke-width="2" />
    <path d="M 24 40 Q 32 44 40 40" fill="none" stroke="#FFC107" stroke-width="2" />

    <path d="M 26 34 C 20 36, 16 42, 20 46" fill="#B71C1C" stroke="#7F0000" stroke-width="2" />

    <g transform="translate(0, 1)">
      <path d="M 32 12 C 20 12, 18 26, 24 30 C 32 34, 40 30, 40 30 C 46 26, 44 12, 32 12 Z" fill="#7F0000" stroke="#4A0000" stroke-width="2" />
      <path d="M 32 16 C 24 16, 22 24, 26 28 C 32 30, 38 28, 38 28 C 42 24, 40 16, 32 16 Z" fill="#212121" />
      <circle cx="29" cy="22" r="2" fill="#E040FB" filter="url(#glow)"/>
      <circle cx="35" cy="22" r="2" fill="#E040FB" filter="url(#glow)"/>
    </g>
  </g>
</svg>